<?xml version="1.0" standalone="no"?><!DOCTYPE svg PUBLIC "-//W3C//DTD SVG 1.1//EN" "http://www.w3.org/Graphics/SVG/1.1/DTD/svg11.dtd"><svg t="1651478759005" class="icon" viewBox="0 0 1024 1024" version="1.1" xmlns="http://www.w3.org/2000/svg" p-id="4640" xmlns:xlink="http://www.w3.org/1999/xlink" width="16" height="16"><defs><style type="text/css">@font-face { font-family: feedback-iconfont; src: url("//at.alicdn.com/t/font_1031158_u69w8yhxdu.woff2?t=1630033759944") format("woff2"), url("//at.alicdn.com/t/font_1031158_u69w8yhxdu.woff?t=1630033759944") format("woff"), url("//at.alicdn.com/t/font_1031158_u69w8yhxdu.ttf?t=1630033759944") format("truetype"); }
</style></defs><path d="M862 96H162c-52.9 0-96 43.1-96 96v640c0 52.9 43.1 96 96 96h700c52.9 0 96-43.1 96-96V192c0-52.9-43.1-96-96-96z m-700 64h700c17.7 0 32 14.4 32 32v159.8H130V192c0-17.7 14.3-32 32-32z m700 704H162c-17.7 0-32-14.4-32-32V415.8h764V832c0 17.7-14.3 32-32 32z" p-id="4641" fill="#707070"></path><path d="M224.3 257m-32 0a32 32 0 1 0 64 0 32 32 0 1 0-64 0Z" p-id="4642" fill="#707070"></path><path d="M352.3 257m-32 0a32 32 0 1 0 64 0 32 32 0 1 0-64 0Z" p-id="4643" fill="#707070"></path><path d="M480.3 257m-32 0a32 32 0 1 0 64 0 32 32 0 1 0-64 0Z" p-id="4644" fill="#707070"></path><path d="M581.8 494.9L551.7 484c-8.3-3-17.5 1.3-20.5 9.6l-98.5 270.6c-3 8.3 1.3 17.5 9.6 20.5l30.1 10.9c8.3 3 17.5-1.3 20.5-9.6l98.5-270.6c2.9-8.2-1.4-17.5-9.6-20.5zM356.4 538l-22.6-22.6c-6.2-6.2-16.4-6.2-22.6 0l-90.5 90.5-22.7 22.6c-6.2 6.2-6.2 16.4 0 22.6l22.6 22.6 90.5 90.5c6.2 6.2 16.4 6.2 22.6 0l22.6-22.6c6.2-6.2 6.2-16.4 0-22.6l-79.2-79.2 79.2-79.2c6.3-6.3 6.3-16.4 0.1-22.6zM805.6 605.9l-90.5-90.5c-6.2-6.2-16.4-6.2-22.6 0L669.9 538c-6.2 6.2-6.2 16.4 0 22.6l79.2 79.2-79.2 79.2c-6.2 6.2-6.2 16.4 0 22.6l22.6 22.6c6.2 6.2 16.4 6.2 22.6 0l90.5-90.5 22.6-22.6c6.2-6.2 6.2-16.4 0-22.6l-22.6-22.6z" p-id="4645" fill="#707070"></path></svg>