<?xml version="1.0" standalone="no"?><!DOCTYPE svg PUBLIC "-//W3C//DTD SVG 1.1//EN" "http://www.w3.org/Graphics/SVG/1.1/DTD/svg11.dtd"><svg t="1652870505883" class="icon" viewBox="0 0 1127 1024" version="1.1" xmlns="http://www.w3.org/2000/svg" p-id="1617" xmlns:xlink="http://www.w3.org/1999/xlink" width="17.609375" height="16"><defs><style type="text/css">@font-face { font-family: feedback-iconfont; src: url("//at.alicdn.com/t/font_1031158_u69w8yhxdu.woff2?t=1630033759944") format("woff2"), url("//at.alicdn.com/t/font_1031158_u69w8yhxdu.woff?t=1630033759944") format("woff"), url("//at.alicdn.com/t/font_1031158_u69w8yhxdu.ttf?t=1630033759944") format("truetype"); }
</style></defs><path d="M281.7204 349.49a74.243 74.243 0 0 0-70.393 77.268 74.243 74.243 0 0 0 70.393 77.268 73.968 73.968 0 0 0 70.393-77.268 73.968 73.968 0 0 0-70.393-77.267z m281.572 0a74.243 74.243 0 0 0-70.393 77.268 74.243 74.243 0 0 0 70.393 77.268 73.968 73.968 0 0 0 69.294-77.268 73.968 73.968 0 0 0-69.294-77.267z m281.573 0a74.243 74.243 0 0 0-70.393 77.268 70.668 70.668 0 1 0 140.786 0 73.968 73.968 0 0 0-70.393-77.267zM985.9264 0H140.9344A148.21 148.21 0 0 0 0.1474 154.535v505.4c0 85.517 64.344 164.984 144.086 164.984h213.38c38.496 41.521 192.48 192.482 192.48 192.482a16.223 16.223 0 0 0 24.748 0s113.564-117.964 187.257-192.482h219.979c80.017 0 145.46-79.192 145.46-164.983V154.535A148.21 148.21 0 0 0 985.9274 0z m70.118 659.936c0 42.895-33.821 87.716-73.417 87.716H766.7724A79.192 79.192 0 0 0 717.0024 775.149L565.2164 923.91l-152.61-147.66a100.915 100.915 0 0 0-53.62-27.497H144.2334c-39.87 0-73.692-44.82-73.692-87.717v-506.5a74.243 74.243 0 0 1 70.393-77.268h844.992a73.968 73.968 0 0 1 70.118 77.268z" fill="#666666" p-id="1618"></path></svg>