<?xml version="1.0" standalone="no"?><!DOCTYPE svg PUBLIC "-//W3C//DTD SVG 1.1//EN" "http://www.w3.org/Graphics/SVG/1.1/DTD/svg11.dtd"><svg t="1651640104825" class="icon" viewBox="0 0 1024 1024" version="1.1" xmlns="http://www.w3.org/2000/svg" p-id="3340" width="16" height="16" xmlns:xlink="http://www.w3.org/1999/xlink"><defs><style type="text/css">@font-face { font-family: feedback-iconfont; src: url("//at.alicdn.com/t/font_1031158_u69w8yhxdu.woff2?t=1630033759944") format("woff2"), url("//at.alicdn.com/t/font_1031158_u69w8yhxdu.woff?t=1630033759944") format("woff"), url("//at.alicdn.com/t/font_1031158_u69w8yhxdu.ttf?t=1630033759944") format("truetype"); }
</style></defs><path d="M815.577386 588.255075c-4.924881 21.18674-43.17804 218.81587-86.282937 283.229411-43.104898 64.413541-131.265141 153.817195-215.719533 152.500642-39.204002-0.609515-111.541237-31.841061-129.436597-87.136258-21.235501-65.705712 42.324719-196.970854 43.153659-283.229411 0.780179-82.138236-95.328139-136.409447-107.859767-196.093152-15.09159-71.825243-16.993277-113.199118 0-152.500642s48.8831-115.442133 237.296363-108.932513c188.388883 6.485239 256.166946 173.687382 258.848812 196.068771 2.706246 22.40577 13.384948 138.579321 0 196.093152z m-43.129278-174.296897c-2.706246-22.40577-27.330651-168.055464-215.719534-174.296897-196.385719-6.50962-194.142704 87.136258-194.142704 87.136258s-13.311807 51.34554 0 108.932513c17.163941 74.312064 109.322603 113.979297 107.859767 196.093152-1.828545 100.789393-60.878354 190.31495-43.153659 283.229411 9.045202 47.347122 52.515809 62.901944 86.282938 65.364384 67.290451 4.9005 144.698851-60.000652 194.142704-152.525023 36.570897-68.411959 59.439899-187.364898 64.730488-239.636901 5.924485-58.781622 2.681866-151.915508 0-174.296897z" fill="#676767" p-id="3341"></path><path d="M299.976494 251.168923c-43.397465 25.160777-103.983252 1.389694-135.28794-53.100943-31.329069-54.490637-21.528068-119.050461 21.869397-144.211238s103.958871-1.414075 135.263559 53.076562c31.329069 54.490637 21.528068 119.074842-21.845016 144.235619z m-13.068001-125.998931c-17.407747-32.694382-51.052973-46.957032-75.165384-31.865442-24.088031 15.115971-29.549285 53.856742-12.141538 86.551124 17.407747 32.694382 51.052973 46.957032 75.165384 31.841061 24.112412-15.09159 29.549285-53.832361 12.141538-86.526743z" fill="#8E969B" p-id="3342"></path><path d="M481.221862 174.296897c-41.690823 0-75.506713-39.008957-75.506713-87.160639C405.715149 39.008957 439.531039 0 481.221862 0s75.506713 39.008957 75.506712 87.136258c0 48.151682-33.81589 87.160639-75.506712 87.160639z m0-130.728768c-17.870979 0-32.353054 19.504479-32.353054 43.568129 0 24.088031 14.482075 43.59251 32.353054 43.59251s32.353054-19.504479 32.353054-43.59251c0-24.063651-14.482075-43.568129-32.353054-43.568129zM743.58148 124.341051c-15.311016 39.740375-54.027406 60.805212-86.477982 47.054555-32.474957-13.775038-46.371898-57.172503-31.085263-96.912878 15.311016-39.764756 54.027406-60.829593 86.502362-47.078936 32.450576 13.775038 46.371898 57.172503 31.060883 96.937259z m-49.541376-55.782809c-10.824986-5.900105-23.722322 3.120717-28.817867 20.162755-5.119926 17.042038-0.463231 35.644435 10.337373 41.54454 10.824986 5.900105 23.746703-3.145097 28.842248-20.187136 5.095545-17.042038 0.463231-35.620054-10.361754-41.520159zM868.141956 227.227176c-17.017658 32.621241-50.711644 46.347517-75.287287 30.646412-24.575643-15.701105-30.670793-54.856346-13.653135-87.477587s50.711644-46.347517 75.287287-30.646412c24.575643 15.676725 30.695173 54.856346 13.653135 87.477587z m-38.30192-48.10292c-4.924881-5.241829-11.653926-0.658276-15.067209 10.21547-3.388903 10.873747-2.169873 23.917367 2.730627 29.159196 4.924881 5.217448 11.653926 0.658276 15.067209-10.215471s2.169873-23.941748-2.730627-29.159195z" fill="#D3A95D" p-id="3343"></path></svg>